<?xml version="1.0" encoding="utf-8"?>
<!-- Generator: Adobe Illustrator 22.0.0, SVG Export Plug-In . SVG Version: 6.00 Build 0)  -->
<svg version="1.1" id="Calque_1" xmlns="http://www.w3.org/2000/svg" xmlns:xlink="http://www.w3.org/1999/xlink" x="0px" y="0px"
	 viewBox="0 0 85 85" style="enable-background:new 0 0 85 85;" xml:space="preserve">
<style type="text/css">
	.st0{fill:#248A41;}
	.st1{fill:#FFFFFF;}
</style>
<image style="display:none;overflow:visible;" width="512" height="512" xlink:href="C:\Users\Marcos Coutinho\Desktop\preferences-512.png"  transform="matrix(0.2099 0 0 0.2099 -8.9641 -16.7005)">
</image>
<path class="st1" d="M81,9.8H35.8C34.1,4.2,28.8,0,22.6,0C16.4,0,11.1,4.2,9.4,9.8H4c-2.2,0-4,1.8-4,4c0,2.2,1.8,4,4,4h5.4
	c1.7,5.7,7,9.8,13.2,9.8c6.2,0,11.5-4.1,13.2-9.8H81c2.2,0,4-1.8,4-4C85,11.6,83.2,9.8,81,9.8z M22.6,20.2c-3.5,0-6.4-2.9-6.4-6.4
	s2.9-6.4,6.4-6.4s6.4,2.9,6.4,6.4S26.1,20.2,22.6,20.2z"/>
<path class="st1" d="M81,38.5h-5.4c-1.7-5.7-7-9.8-13.2-9.8c-6.2,0-11.5,4.1-13.2,9.8H4c-2.2,0-4,1.8-4,4s1.8,4,4,4h45.2
	c1.7,5.7,7,9.8,13.2,9.8c6.2,0,11.5-4.1,13.2-9.8H81c2.2,0,4-1.8,4-4S83.2,38.5,81,38.5z M62.3,48.9c-3.5,0-6.4-2.9-6.4-6.4
	s2.9-6.4,6.4-6.4s6.4,2.9,6.4,6.4S65.9,48.9,62.3,48.9z"/>
<path class="st1" d="M81,67.2H35.8c-1.7-5.7-7-9.8-13.2-9.8c-6.2,0-11.5,4.1-13.2,9.8H4c-2.2,0-4,1.8-4,4v0c0,2.2,1.8,4,4,4h5.4
	c1.7,5.7,7,9.8,13.2,9.8c6.2,0,11.5-4.1,13.2-9.8H81c2.2,0,4-1.8,4-4v0C85,69,83.2,67.2,81,67.2z M22.6,77.6c-3.5,0-6.4-2.9-6.4-6.4
	s2.9-6.4,6.4-6.4s6.4,2.9,6.4,6.4S26.1,77.6,22.6,77.6z"/>
</svg>
