<?xml version="1.0" encoding="utf-8"?>
<!-- Generator: Adobe Illustrator 22.0.0, SVG Export Plug-In . SVG Version: 6.00 Build 0)  -->
<svg version="1.1" id="Calque_1" xmlns="http://www.w3.org/2000/svg" xmlns:xlink="http://www.w3.org/1999/xlink" x="0px" y="0px"
	 viewBox="0 0 85 85" style="enable-background:new 0 0 85 85;" xml:space="preserve">
<style type="text/css">
	.st0{fill:#248A41;}
	.st1{fill:#CACACA;}
	.st2{fill:#211915;}
	.st3{fill:#11931D;}
	.st4{fill:#FFFFFF;}
</style>
<path class="st4" d="M42.5,85C19.1,85,0,65.9,0,42.5S19.1,0,42.5,0S85,19.1,85,42.5S65.9,85,42.5,85z"/>
<g>
	<path class="st0" d="M42.4,24.5c2.1,0,3.9-0.8,5.3-2.3c1.5-1.5,2.2-3.3,2.2-5.4c0-2.1-0.7-3.9-2.2-5.4c-1.4-1.5-3.2-2.2-5.3-2.2
		c-2.1,0-3.9,0.7-5.4,2.2c-1.5,1.5-2.3,3.3-2.3,5.4c0,2.1,0.7,3.9,2.2,5.4C38.5,23.7,40.3,24.5,42.4,24.5z"/>
	<path class="st0" d="M50.2,68.6V27.9c-3.5,0.3-7,0.6-10.7,0.8c-3.7,0.2-7.5,0.4-11.5,0.5L28,32.5h7.1v36.1h-6.4v3.3H57v-3.3H50.2z"
		/>
</g>
</svg>
