<?xml version="1.0" encoding="utf-8"?>
<!-- Generator: Adobe Illustrator 22.0.0, SVG Export Plug-In . SVG Version: 6.00 Build 0)  -->
<svg version="1.1" id="Calque_1" xmlns="http://www.w3.org/2000/svg" xmlns:xlink="http://www.w3.org/1999/xlink" x="0px" y="0px"
	 viewBox="0 0 85 85" style="enable-background:new 0 0 85 85;" xml:space="preserve">
<style type="text/css">
	.st0{fill:#248A41;}
	.st1{fill:#CACACA;}
	.st2{fill:#211915;}
	.st3{fill:#11931D;}
	.st4{fill:#FFFFFF;}
</style>
<g>
	<path class="st4" d="M42.5,85C19.1,85,0,65.9,0,42.5S19.1,0,42.5,0S85,19.1,85,42.5S65.9,85,42.5,85z M42.5,6.6
		C22.7,6.6,6.6,22.7,6.6,42.5c0,19.8,16.1,35.9,35.9,35.9c19.8,0,35.9-16.1,35.9-35.9C78.4,22.7,62.3,6.6,42.5,6.6z"/>
	<g>
		<path class="st4" d="M42.4,29.4c1.7,0,3.2-0.6,4.4-1.9c1.2-1.2,1.8-2.7,1.8-4.4c0-1.7-0.6-3.2-1.8-4.4c-1.2-1.2-2.6-1.8-4.3-1.8
			c-1.7,0-3.2,0.6-4.4,1.8c-1.2,1.2-1.9,2.7-1.9,4.4c0,1.7,0.6,3.2,1.8,4.4C39.2,28.8,40.7,29.4,42.4,29.4z"/>
		<path class="st4" d="M48.8,65.4V32.2c-2.8,0.3-5.7,0.5-8.7,0.7c-3,0.2-6.1,0.3-9.4,0.4l0,2.7h5.8v29.5h-5.2v2.7h23.1v-2.7H48.8z"
			/>
	</g>
</g>
</svg>
