<?xml version="1.0" encoding="utf-8"?>
<!-- Generator: Adobe Illustrator 22.0.0, SVG Export Plug-In . SVG Version: 6.00 Build 0)  -->
<svg version="1.1" id="Calque_1" xmlns="http://www.w3.org/2000/svg" xmlns:xlink="http://www.w3.org/1999/xlink" x="0px" y="0px"
	 viewBox="0 0 85 85" style="enable-background:new 0 0 85 85;" xml:space="preserve">
<style type="text/css">
	.st0{fill:#FFFFFF;}
</style>
<path class="st0" d="M27.4,21.1c4.6-3.3,10.1-4.9,15.6-4.9c0.7,0,1.5,0,2.2,0.1c0.3,0,0.6,0.1,0.9,0.1c0.6,0.1,1.1,0.2,1.7,0.3
	c0.3,0.1,0.7,0.2,1,0.2c0.5,0.1,1.1,0.3,1.6,0.4c0.3,0.1,0.5,0.2,0.8,0.3c0.6,0.2,1.2,0.4,1.8,0.7c0.1,0.1,0.3,0.1,0.4,0.2
	c0.7,0.3,1.4,0.6,2,1c0,0,0.1,0,0.1,0c2.2,1.2,4.3,2.8,6.1,4.6c0,0,0.1,0.1,0.1,0.1c0.6,0.6,1.1,1.2,1.6,1.8
	c0.1,0.1,0.2,0.3,0.3,0.4c3.6,4.6,5.8,10.5,5.8,16.8h-6.2c-0.2,0-0.3,0.1-0.4,0.2c-0.1,0.2-0.1,0.3,0,0.5l10.4,15.8
	c0.1,0.1,0.2,0.2,0.4,0.2c0.2,0,0.3-0.1,0.4-0.2l10.4-15.8c0.1-0.1,0.1-0.3,0-0.5c-0.1-0.2-0.2-0.2-0.4-0.2h-6.2
	c0-7.5-2.3-14.4-6.2-20.1c0-0.1-0.1-0.2-0.1-0.2c-0.4-0.6-0.9-1.1-1.3-1.7c-0.2-0.2-0.3-0.4-0.5-0.6c-0.6-0.8-1.3-1.5-2-2.2
	c-0.1-0.1-0.1-0.1-0.2-0.2c-2.3-2.4-5-4.4-7.9-6c-0.1,0-0.1-0.1-0.2-0.1c-0.8-0.5-1.7-0.9-2.6-1.2c-0.2-0.1-0.4-0.2-0.6-0.3
	c-0.7-0.3-1.5-0.6-2.3-0.8c-0.4-0.1-0.7-0.3-1.1-0.4c-0.7-0.2-1.4-0.4-2-0.5c-0.5-0.1-0.9-0.2-1.4-0.3c-0.2,0-0.4-0.1-0.6-0.1
	c-0.6-0.1-1.3-0.2-2-0.3c-0.2,0-0.5-0.1-0.7-0.1c-1.2-0.1-2.3-0.2-3.5-0.2c-7.1,0-14.1,2.2-20.1,6.4c-1.9,1.4-2.4,4-1,5.9
	C22.9,21.9,25.5,22.4,27.4,21.1 M7.6,43.2c0,7.4,2.3,14.4,6.2,20.1c0.1,0.1,0.1,0.2,0.2,0.3c0.5,0.7,1,1.4,1.5,2
	c0.1,0.1,0.1,0.2,0.2,0.2c3.6,4.4,8,7.7,13.1,10c0.1,0.1,0.3,0.1,0.4,0.2c0.8,0.3,1.6,0.6,2.5,0.9c0.3,0.1,0.6,0.2,0.9,0.3
	c0.7,0.2,1.5,0.4,2.2,0.6c0.4,0.1,0.8,0.2,1.2,0.3c0.2,0,0.4,0.1,0.6,0.1c0.6,0.1,1.1,0.1,1.7,0.2c0.4,0,0.8,0.1,1.1,0.1
	c0.9,0.1,1.9,0.1,2.8,0.1c0.2,0,0.3,0,0.5,0c0,0,0.1,0,0.1,0c7.1,0,14.1-2.2,20-6.4c1.9-1.3,2.4-4,1-5.9c-1.3-1.9-4-2.4-5.9-1
	c-4.6,3.3-10,4.9-15.5,4.9c-0.8,0-1.6,0-2.3-0.1c-0.2,0-0.5-0.1-0.7-0.1c-0.6-0.1-1.3-0.2-1.9-0.3c-0.3-0.1-0.5-0.1-0.8-0.2
	c-0.6-0.1-1.2-0.3-1.8-0.5c-0.2-0.1-0.4-0.1-0.6-0.2c-0.7-0.2-1.3-0.5-2-0.7c-0.1,0-0.1-0.1-0.2-0.1c-3.9-1.7-7.4-4.3-10-7.6
	c0,0,0,0,0-0.1C18.3,55.6,16,49.6,16,43.2h6.2c0.2,0,0.3-0.1,0.4-0.2c0.1-0.2,0.1-0.3,0-0.5L12.2,26.7c-0.1-0.1-0.2-0.2-0.4-0.2
	c-0.2,0-0.3,0.1-0.4,0.2L1.1,42.5c-0.1,0.1-0.1,0.3,0,0.5c0.1,0.2,0.2,0.2,0.4,0.2L7.6,43.2L7.6,43.2z"/>
</svg>
